<svg xmlns="http://www.w3.org/2000/svg" xmlns:xlink="http://www.w3.org/1999/xlink" width="940" height="788" preserveAspectRatio="xMidYMid meet" version="1.0" viewBox="0 0 705 591" zoomAndPan="magnify"><defs><clipPath id="86eca01993"><path d="M 0.59375 0 L 704.402344 0 L 704.402344 590 L 0.59375 590 Z M 0.59375 0" clip-rule="nonzero"/></clipPath><clipPath id="7075f121f6"><path d="M 207 364 L 484 364 L 484 443.511719 L 207 443.511719 Z M 207 364" clip-rule="nonzero"/></clipPath><clipPath id="07833ebeb6"><path d="M 452 244 L 523.996094 244 L 523.996094 346 L 452 346 Z M 452 244" clip-rule="nonzero"/></clipPath><clipPath id="1f0429e401"><path d="M 206.703125 188 L 478 188 L 478 406 L 206.703125 406 Z M 206.703125 188" clip-rule="nonzero"/></clipPath><clipPath id="959fb60858"><path d="M 224 31.710938 L 434 31.710938 L 434 238 L 224 238 Z M 224 31.710938" clip-rule="nonzero"/></clipPath></defs><g clip-path="url(#86eca01993)"><path fill="#fff" fill-opacity="1" fill-rule="nonzero" d="M 0.59375 0 L 704.40625 0 L 704.40625 597.488281 L 0.59375 597.488281 Z M 0.59375 0"/><path fill="#fff" fill-opacity="1" fill-rule="nonzero" d="M 0.59375 0 L 704.40625 0 L 704.40625 590 L 0.59375 590 Z M 0.59375 0"/></g><g clip-path="url(#7075f121f6)"><path fill="#bc8855" fill-opacity="1" fill-rule="nonzero" d="M 447 364.371094 C 454.816406 366.605469 462.410156 369.289062 469.558594 373.761719 C 473.128906 375.996094 476.480469 378.679688 479.160156 382.257812 C 480.5 384.042969 481.617188 386.054688 482.511719 388.292969 C 482.957031 389.410156 483.179688 390.527344 483.402344 391.871094 L 483.402344 393.65625 C 483.402344 394.328125 483.402344 395 483.402344 395.445312 C 482.957031 400.363281 480.277344 404.835938 477.375 408.1875 C 474.46875 411.542969 470.898438 414.449219 467.546875 416.90625 C 460.402344 421.828125 452.808594 425.179688 444.992188 428.085938 C 437.175781 430.992188 429.359375 433.226562 421.320312 435.242188 C 413.277344 437.253906 405.238281 438.59375 397.199219 439.933594 C 380.898438 442.394531 364.59375 443.511719 348.292969 443.511719 C 340.027344 443.511719 331.988281 443.289062 323.726562 442.839844 C 315.464844 442.394531 307.421875 441.722656 299.382812 440.605469 C 283.082031 438.371094 267 435.242188 251.367188 429.875 C 243.550781 427.191406 235.738281 424.0625 228.589844 419.816406 C 225.015625 417.578125 221.445312 415.34375 218.09375 412.4375 C 214.742188 409.53125 211.617188 406.175781 209.605469 401.929688 C 208.714844 399.695312 208.042969 397.457031 207.820312 395 C 207.820312 394.328125 207.820312 393.882812 207.820312 393.210938 L 207.820312 392.316406 C 207.820312 392.09375 207.820312 391.644531 207.820312 391.421875 C 208.042969 390.082031 208.265625 388.960938 208.714844 387.84375 C 210.277344 383.375 213.402344 380.019531 216.53125 377.335938 C 223.230469 371.972656 230.824219 368.84375 238.417969 366.382812 C 234.84375 368.394531 231.269531 370.183594 228.144531 372.644531 C 224.792969 374.878906 221.667969 377.335938 219.210938 380.242188 C 216.753906 383.148438 214.519531 386.28125 213.628906 389.632812 C 213.402344 390.527344 213.402344 391.421875 213.402344 392.09375 C 213.402344 392.316406 213.402344 392.316406 213.402344 392.761719 L 213.402344 393.433594 C 213.402344 393.65625 213.402344 393.433594 213.402344 393.433594 C 213.402344 393.882812 213.402344 394.328125 213.628906 394.550781 C 213.851562 396.117188 214.519531 397.683594 215.414062 399.023438 C 217.199219 401.929688 219.878906 404.386719 222.785156 406.625 C 225.6875 408.859375 229.035156 410.648438 232.609375 412.214844 C 239.53125 415.34375 246.902344 418.027344 254.496094 420.039062 C 269.683594 424.0625 285.3125 426.519531 300.945312 428.085938 C 308.761719 428.757812 316.578125 429.425781 324.621094 429.875 C 332.4375 430.320312 340.476562 430.320312 348.292969 430.320312 C 364.148438 430.320312 380.003906 429.425781 395.636719 427.640625 C 411.269531 425.851562 426.902344 422.945312 441.863281 418.472656 C 449.234375 416.238281 456.605469 413.332031 463.082031 409.753906 C 466.429688 407.964844 469.332031 405.730469 472.011719 403.269531 C 474.46875 400.8125 476.480469 397.90625 477.148438 395 C 477.820312 391.871094 477.148438 388.515625 475.363281 385.609375 C 473.578125 382.480469 470.898438 379.796875 467.769531 377.335938 C 464.867188 374.878906 461.515625 372.644531 457.945312 370.628906 C 454.148438 367.949219 450.574219 366.160156 447 364.371094 Z M 447 364.371094"/></g><g clip-path="url(#07833ebeb6)"><path fill="#bc8855" fill-opacity="1" fill-rule="nonzero" d="M 479.828125 244.316406 C 483.402344 244.316406 487.199219 244.765625 490.550781 244.988281 C 493.898438 245.433594 497.25 245.882812 500.597656 246.777344 C 503.949219 247.671875 507.296875 248.789062 510.648438 250.355469 C 514 251.917969 517.347656 254.15625 519.804688 257.730469 C 522.484375 261.085938 523.601562 265.554688 523.601562 269.582031 C 523.601562 273.605469 522.261719 277.179688 520.921875 280.3125 C 518.019531 286.570312 514 291.9375 509.980469 296.855469 C 501.492188 306.691406 492.113281 314.964844 482.285156 322.789062 C 472.460938 330.613281 462.410156 337.992188 452.136719 345.144531 C 461.742188 337.097656 471.121094 328.824219 480.054688 320.105469 C 488.984375 311.386719 497.472656 302.445312 504.617188 292.382812 C 508.191406 287.464844 511.320312 282.324219 513.105469 276.957031 C 514 274.273438 514.445312 271.816406 514.222656 269.355469 C 514 267.121094 513.328125 265.332031 511.765625 263.765625 C 508.863281 260.636719 503.503906 258.847656 498.140625 258.179688 C 495.460938 257.730469 492.558594 257.507812 489.65625 257.507812 C 486.753906 257.507812 482.285156 257.953125 479.605469 258.402344 Z M 479.828125 244.316406"/></g><path fill="#bc8855" fill-opacity="1" fill-rule="nonzero" d="M 414.621094 380.242188 C 419.53125 380.914062 424.667969 382.03125 429.359375 384.042969 C 431.816406 384.9375 434.273438 386.054688 436.28125 388.070312 C 437.398438 388.960938 438.292969 390.527344 438.515625 392.316406 L 438.515625 392.988281 C 438.515625 392.988281 438.515625 392.988281 438.515625 393.210938 L 438.515625 393.65625 C 438.515625 393.882812 438.515625 394.105469 438.515625 394.328125 C 438.515625 394.550781 438.515625 394.777344 438.292969 395 C 438.066406 395.894531 437.621094 396.5625 437.175781 397.234375 C 435.386719 399.917969 432.933594 401.257812 430.699219 402.601562 C 428.242188 403.941406 426.007812 404.835938 423.550781 405.953125 C 418.640625 407.742188 413.726562 409.082031 408.589844 410.203125 C 398.539062 412.4375 388.492188 414 378.21875 414.894531 C 368.167969 415.789062 357.894531 416.238281 347.621094 416.460938 C 337.347656 416.460938 327.300781 416.238281 317.027344 415.34375 C 306.976562 414.449219 296.703125 413.109375 286.65625 411.09375 C 281.742188 409.976562 276.605469 408.859375 271.691406 407.070312 C 269.234375 406.175781 266.777344 405.28125 264.320312 404.164062 C 261.867188 403.046875 259.632812 401.929688 257.398438 400.140625 C 256.28125 399.246094 255.164062 398.351562 254.273438 397.011719 C 253.378906 395.667969 252.933594 393.882812 253.15625 392.09375 C 253.601562 390.304688 254.496094 388.960938 255.613281 388.070312 C 256.730469 387.175781 257.84375 386.28125 258.960938 385.832031 C 263.652344 383.375 268.566406 382.257812 273.476562 381.363281 C 271.023438 382.257812 268.789062 383.148438 266.554688 384.269531 C 264.320312 385.386719 262.089844 386.503906 260.078125 387.84375 C 259.183594 388.515625 258.292969 389.410156 257.398438 390.082031 C 256.730469 390.976562 256.28125 391.871094 256.28125 392.539062 C 256.058594 394.105469 257.621094 395.667969 259.632812 396.789062 C 263.429688 399.246094 268.339844 400.589844 273.03125 401.707031 C 277.722656 402.824219 282.632812 403.71875 287.546875 404.390625 C 307.199219 407.070312 327.300781 407.964844 347.175781 407.964844 C 367.050781 407.742188 387.148438 406.847656 406.804688 403.71875 C 411.714844 402.824219 416.40625 401.929688 421.320312 400.589844 C 423.550781 399.917969 426.007812 399.246094 428.019531 398.128906 C 430.25 397.234375 432.261719 395.894531 433.378906 394.550781 C 433.601562 394.105469 433.824219 393.882812 434.046875 393.433594 L 434.273438 392.988281 L 434.273438 392.539062 C 434.273438 392.761719 434.273438 392.539062 434.273438 392.539062 L 434.273438 392.316406 C 434.273438 391.644531 433.824219 390.75 433.15625 389.855469 C 431.816406 388.292969 429.804688 386.949219 427.570312 385.609375 C 424.222656 383.820312 419.53125 382.03125 414.621094 380.242188 Z M 414.621094 380.242188"/><path fill="#bc8855" fill-opacity="1" fill-rule="nonzero" d="M 457.273438 232.46875 C 457.496094 234.257812 456.382812 236.269531 455.265625 237.609375 C 453.925781 238.953125 452.585938 240.292969 451.019531 241.1875 C 447.894531 243.199219 444.320312 244.765625 440.972656 246.105469 C 434.046875 248.789062 426.679688 250.800781 419.53125 252.367188 C 405.015625 255.496094 390.054688 257.507812 375.3125 258.625 C 345.613281 260.859375 315.6875 260.414062 285.984375 256.835938 C 278.613281 255.71875 271.246094 254.601562 263.875 252.8125 C 256.503906 251.023438 249.136719 249.234375 241.988281 245.660156 C 240.203125 244.765625 238.417969 243.871094 236.628906 242.527344 C 234.84375 241.1875 233.054688 239.847656 231.714844 237.609375 C 231.046875 236.492188 230.375 235.152344 230.152344 233.585938 C 230.152344 233.140625 230.152344 232.914062 229.929688 232.46875 L 229.929688 231.351562 C 229.929688 231.128906 229.929688 230.457031 230.152344 230.007812 C 230.152344 229.5625 230.375 229.339844 230.375 228.890625 C 231.492188 225.984375 233.28125 224.421875 235.066406 222.855469 C 238.640625 220.171875 242.210938 218.609375 245.785156 217.265625 C 249.359375 215.925781 253.15625 214.808594 256.730469 213.914062 C 271.46875 210.335938 286.207031 208.769531 301.171875 207.875 C 315.910156 206.984375 330.871094 206.984375 345.613281 207.875 C 330.871094 208.769531 316.132812 209.890625 301.394531 211.902344 C 294.023438 212.796875 286.878906 213.914062 279.730469 215.253906 C 272.585938 216.597656 265.4375 218.160156 258.515625 220.171875 C 255.164062 221.289062 251.59375 222.410156 248.464844 223.75 C 245.339844 225.089844 241.988281 226.65625 239.757812 228.667969 C 238.640625 229.5625 237.746094 230.679688 237.523438 231.351562 L 237.523438 232.023438 L 237.523438 231.796875 L 237.523438 232.023438 C 237.523438 232.246094 237.746094 232.691406 237.96875 233.140625 C 238.640625 234.035156 239.757812 234.929688 241.097656 235.820312 C 242.4375 236.714844 243.777344 237.386719 245.339844 238.058594 C 251.59375 240.964844 258.515625 242.753906 265.660156 244.316406 C 272.808594 245.882812 279.953125 247 287.101562 247.894531 C 301.617188 249.90625 316.132812 251.023438 330.871094 251.472656 C 345.613281 252.140625 360.128906 251.917969 374.867188 251.472656 C 389.605469 250.800781 404.121094 249.90625 418.640625 247.671875 C 425.785156 246.554688 433.15625 245.210938 440.078125 243.199219 C 443.652344 242.082031 447 240.964844 450.351562 239.175781 C 451.914062 238.28125 453.476562 237.386719 454.816406 236.269531 C 456.15625 236.046875 457.273438 234.480469 457.273438 232.46875 Z M 457.273438 232.46875"/><path fill="#d3a97f" fill-opacity="1" fill-rule="nonzero" d="M 345.835938 32.378906 C 349.183594 36.402344 351.640625 41.320312 352.757812 46.6875 C 353.875 51.828125 353.429688 57.417969 351.640625 62.5625 C 349.855469 67.703125 346.730469 72.175781 343.15625 76.199219 C 339.582031 80.222656 335.339844 83.574219 330.871094 86.480469 C 321.941406 92.519531 312.335938 96.988281 302.285156 100.789062 C 297.375 102.800781 292.238281 104.367188 287.324219 106.15625 C 282.410156 107.945312 277.273438 109.507812 272.363281 111.296875 C 267.449219 113.085938 262.535156 115.097656 257.621094 117.109375 C 252.710938 119.121094 248.019531 121.132812 243.550781 123.59375 C 241.320312 124.710938 239.085938 126.050781 237.078125 127.617188 C 235.066406 128.957031 233.054688 130.746094 231.714844 132.3125 C 231.046875 133.207031 230.601562 134.101562 230.375 134.996094 C 230.152344 135.890625 230.375 136.558594 230.824219 137.453125 C 231.714844 139.019531 233.503906 140.585938 235.738281 141.925781 C 239.980469 144.386719 244.894531 146.171875 249.804688 147.960938 C 254.71875 149.527344 259.855469 150.867188 264.769531 152.210938 C 275.042969 154.667969 285.3125 156.679688 295.585938 158.46875 C 316.355469 162.046875 337.125 164.953125 358.117188 167.859375 C 368.613281 169.425781 379.109375 170.988281 389.382812 173.222656 C 394.519531 174.34375 399.65625 175.460938 404.792969 177.023438 C 409.929688 178.589844 415.066406 180.378906 419.980469 183.0625 C 422.4375 184.402344 424.890625 185.96875 426.679688 188.648438 C 427.570312 189.992188 428.242188 191.78125 428.019531 193.570312 C 427.796875 195.355469 427.125 196.921875 426.230469 198.039062 C 424.445312 200.5 421.988281 202.0625 419.753906 203.628906 C 417.523438 205.195312 415.066406 206.3125 412.609375 207.429688 C 402.78125 211.902344 392.734375 214.808594 382.460938 217.714844 C 372.1875 220.394531 361.914062 222.632812 351.640625 224.644531 C 341.367188 226.65625 330.871094 228.445312 320.375 229.785156 C 341.144531 225.761719 361.691406 221.289062 381.789062 215.253906 C 391.839844 212.347656 401.890625 208.996094 411.269531 204.523438 C 413.503906 203.40625 415.960938 202.0625 417.96875 200.722656 C 419.980469 199.382812 421.988281 197.816406 423.328125 196.027344 C 424.667969 194.238281 424.890625 192.449219 423.550781 190.664062 C 422.433594 188.875 420.203125 187.53125 418.191406 186.414062 C 413.726562 184.179688 408.8125 182.390625 403.898438 181.050781 C 398.988281 179.707031 393.851562 178.589844 388.714844 177.472656 C 378.441406 175.460938 367.945312 173.894531 357.671875 172.554688 C 336.679688 169.871094 315.6875 167.1875 294.917969 163.609375 C 284.421875 161.824219 274.148438 159.8125 263.652344 157.351562 C 258.515625 156.011719 253.378906 154.667969 248.242188 153.105469 C 243.105469 151.316406 237.96875 149.527344 233.28125 146.621094 C 230.824219 145.054688 228.367188 143.265625 226.804688 140.136719 C 225.910156 138.570312 225.6875 136.558594 226.132812 134.773438 C 226.578125 132.984375 227.25 131.417969 228.367188 130.300781 C 230.375 127.839844 232.609375 126.050781 234.84375 124.488281 C 237.078125 122.921875 239.53125 121.582031 241.988281 120.464844 C 251.59375 115.546875 261.640625 111.96875 271.46875 108.390625 C 276.382812 106.601562 281.519531 105.039062 286.652344 103.472656 C 291.789062 101.90625 296.703125 100.34375 301.617188 98.554688 C 311.441406 94.976562 321.046875 90.730469 329.980469 85.140625 C 334.445312 82.457031 338.464844 79.328125 342.261719 75.527344 C 345.835938 71.949219 348.960938 67.703125 350.972656 62.785156 C 352.980469 58.089844 353.429688 52.722656 352.535156 47.582031 C 351.195312 41.546875 348.960938 36.628906 345.835938 32.378906 Z M 345.835938 32.378906"/><path fill="#d3a97f" fill-opacity="1" fill-rule="nonzero" d="M 358.339844 58.089844 C 361.46875 61.890625 363.703125 66.359375 364.59375 71.054688 C 365.710938 75.75 365.265625 80.894531 363.476562 85.585938 C 361.914062 90.28125 359.011719 94.53125 355.660156 98.105469 C 352.3125 101.683594 348.515625 104.8125 344.496094 107.496094 C 336.457031 112.863281 327.523438 117.109375 318.367188 120.6875 C 313.898438 122.476562 309.210938 124.039062 304.742188 125.605469 C 300.277344 127.171875 295.585938 128.734375 291.121094 130.523438 C 282.1875 133.878906 273.253906 137.453125 264.769531 141.703125 C 262.757812 142.820312 260.75 143.9375 258.738281 145.277344 C 256.953125 146.621094 255.164062 147.960938 253.824219 149.527344 C 253.15625 150.421875 252.933594 151.089844 252.710938 151.761719 C 252.484375 152.433594 252.710938 153.105469 252.933594 153.773438 C 253.601562 155.117188 255.390625 156.679688 257.175781 157.796875 C 260.972656 160.035156 265.4375 161.824219 269.90625 163.164062 C 274.371094 164.503906 279.0625 165.847656 283.75 166.964844 C 293.128906 169.199219 302.511719 170.988281 311.890625 172.554688 C 330.871094 175.90625 349.855469 178.589844 369.0625 181.050781 C 378.664062 182.390625 388.265625 183.957031 397.648438 185.96875 C 402.335938 187.085938 407.25 188.203125 411.9375 189.542969 C 416.628906 190.886719 421.320312 192.675781 425.785156 195.132812 C 428.019531 196.476562 430.25 197.816406 432.039062 200.277344 C 432.933594 201.617188 433.378906 203.183594 433.378906 204.746094 C 433.15625 206.3125 432.484375 207.875 431.59375 208.996094 C 429.804688 211.230469 427.796875 212.796875 425.5625 214.136719 C 423.328125 215.476562 421.320312 216.597656 419.085938 217.714844 C 410.152344 221.738281 400.773438 224.644531 391.394531 227.101562 C 382.015625 229.5625 372.632812 231.574219 363.03125 233.363281 C 353.652344 235.152344 344.046875 236.714844 334.445312 238.058594 C 353.429688 234.480469 372.1875 230.234375 390.722656 224.644531 C 399.878906 221.960938 409.035156 218.832031 417.746094 214.808594 C 419.980469 213.6875 421.988281 212.570312 423.777344 211.453125 C 425.785156 210.113281 427.570312 208.769531 428.6875 207.207031 C 429.804688 205.417969 430.027344 204.074219 428.910156 202.511719 C 427.796875 200.945312 426.007812 199.605469 424 198.710938 C 419.980469 196.699219 415.511719 195.132812 410.824219 193.792969 C 406.355469 192.449219 401.667969 191.558594 396.976562 190.4375 C 387.597656 188.648438 377.992188 187.085938 368.613281 185.96875 C 349.410156 183.507812 330.203125 181.050781 311.21875 177.695312 C 301.617188 175.90625 292.238281 174.117188 282.632812 171.882812 C 277.945312 170.765625 273.253906 169.425781 268.566406 167.859375 C 263.875 166.292969 259.183594 164.503906 254.71875 161.824219 C 252.484375 160.480469 250.253906 158.691406 248.6875 155.785156 C 248.019531 154.445312 247.574219 152.433594 248.019531 150.867188 C 248.464844 149.304688 249.136719 147.738281 250.027344 146.621094 C 251.816406 144.386719 253.824219 142.820312 256.058594 141.253906 C 258.070312 139.914062 260.300781 138.570312 262.535156 137.453125 C 271.246094 132.984375 280.402344 129.628906 289.558594 126.5 C 294.246094 124.933594 298.714844 123.371094 303.402344 122.027344 C 308.09375 120.6875 312.558594 119.121094 317.027344 117.558594 C 325.960938 114.203125 334.890625 110.402344 342.933594 105.261719 C 346.953125 102.800781 350.75 99.894531 354.097656 96.542969 C 357.449219 93.1875 360.351562 89.386719 362.136719 84.917969 C 365.933594 76.421875 364.148438 65.691406 358.339844 58.089844 Z M 358.339844 58.089844"/><path fill="#603913" fill-opacity="1" fill-rule="nonzero" d="M 425.117188 202.957031 C 423.777344 204.074219 422.4375 204.96875 421.320312 205.640625 C 419.53125 206.757812 417.523438 207.875 415.289062 208.996094 C 416.851562 209.21875 418.191406 209.664062 419.753906 209.890625 C 420.648438 209.441406 421.542969 208.996094 422.210938 208.324219 C 424.222656 206.984375 425.5625 205.863281 426.230469 204.746094 C 426.457031 204.300781 426.457031 204.300781 426.679688 204.074219 C 426.679688 204.074219 426.679688 204.074219 426.679688 203.851562 C 426.230469 204.074219 426.007812 203.628906 425.117188 202.957031 Z M 425.117188 202.957031"/><g clip-path="url(#1f0429e401)"><path fill="#603913" fill-opacity="1" fill-rule="nonzero" d="M 477.820312 233.585938 C 477.820312 219.054688 461.070312 207.875 436.058594 200.277344 C 436.726562 201.839844 436.953125 203.628906 436.953125 205.195312 C 436.726562 207.207031 436.058594 209.21875 434.496094 211.007812 C 433.824219 211.902344 433.15625 212.570312 432.484375 213.242188 C 453.03125 219.503906 464.421875 227.101562 464.421875 233.363281 C 464.421875 246.105469 416.851562 264.660156 342.261719 264.660156 C 267.671875 264.660156 220.105469 246.105469 220.105469 233.363281 C 220.105469 220.621094 267.671875 202.0625 342.261719 202.0625 C 362.808594 202.0625 381.34375 203.40625 397.421875 205.863281 C 401.667969 204.300781 405.6875 202.734375 409.707031 200.722656 C 411.492188 199.828125 413.054688 198.933594 414.621094 198.039062 C 413.277344 197.59375 411.9375 197.144531 410.375 196.699219 C 406.132812 195.582031 401.667969 194.464844 396.753906 193.570312 C 389.832031 192.226562 382.460938 190.886719 373.75 189.769531 C 363.476562 189.097656 352.980469 188.648438 342.484375 188.648438 C 275.042969 188.648438 206.925781 204.074219 206.925781 233.363281 C 206.925781 234.480469 206.925781 235.375 207.152344 236.269531 L 206.925781 236.269531 C 206.925781 256.167969 209.605469 276.285156 215.414062 295.511719 C 218.316406 305.125 221.890625 314.515625 226.355469 323.683594 C 230.824219 332.625 235.960938 341.34375 241.988281 349.617188 C 253.824219 365.9375 269.011719 380.242188 286.652344 390.304688 C 304.296875 400.363281 324.84375 405.953125 345.386719 405.730469 C 365.933594 405.730469 386.035156 399.46875 403.230469 389.1875 C 420.648438 378.902344 435.164062 364.371094 446.332031 348.050781 C 457.722656 331.730469 465.761719 313.398438 470.898438 294.394531 C 473.351562 285.007812 475.140625 275.167969 476.257812 265.554688 C 477.148438 256.390625 477.375 247.222656 477.148438 238.058594 C 477.597656 236.714844 477.820312 235.152344 477.820312 233.585938 Z M 466.652344 293.277344 C 460.625 311.386719 451.691406 328.601562 440.078125 343.578125 C 428.6875 358.558594 414.394531 371.523438 398.09375 380.46875 C 392.511719 383.597656 386.480469 386.28125 380.449219 388.292969 C 353.203125 393.433594 318.367188 383.820312 318.367188 383.820312 C 366.382812 390.527344 400.996094 372.644531 400.996094 372.644531 C 359.679688 382.703125 317.25 363.699219 317.25 363.699219 C 366.382812 378.230469 426.679688 344.699219 426.679688 344.699219 C 368.613281 364.816406 316.132812 339.109375 316.132812 339.109375 C 375.3125 355.875 435.835938 318.316406 435.835938 318.316406 C 390.054688 342.910156 315.015625 317.871094 315.015625 317.871094 C 403.230469 335.53125 446.777344 288.582031 446.777344 288.582031 C 382.683594 321.222656 314.792969 296.183594 314.792969 296.183594 C 359.90625 307.363281 413.503906 287.242188 440.972656 268.238281 C 444.992188 266.675781 449.011719 264.886719 453.03125 262.875 C 458.613281 260.191406 463.972656 256.835938 468.441406 252.589844 C 470.671875 250.578125 472.90625 248.117188 474.46875 245.433594 C 475.585938 243.648438 476.257812 241.636719 476.703125 239.621094 C 476.703125 239.398438 476.925781 239.175781 476.925781 238.953125 C 476.035156 257.730469 472.683594 276.0625 466.652344 293.277344 Z M 466.652344 293.277344"/></g><g clip-path="url(#959fb60858)"><path fill="#d3a97f" fill-opacity="1" fill-rule="nonzero" d="M 432.261719 200.277344 C 430.921875 198.261719 428.910156 196.699219 427.125 195.582031 C 427.570312 194.6875 427.796875 193.792969 428.019531 192.675781 C 428.242188 190.886719 427.570312 189.097656 426.679688 187.757812 C 424.890625 185.074219 422.433594 183.507812 419.980469 182.167969 C 415.066406 179.484375 409.929688 177.695312 404.792969 176.128906 C 399.65625 174.566406 394.519531 173.449219 389.382812 172.332031 C 378.886719 170.09375 368.613281 168.53125 358.117188 166.964844 C 337.125 164.28125 316.355469 161.375 295.585938 157.574219 C 285.3125 155.785156 274.816406 153.773438 264.769531 151.316406 C 261.417969 150.421875 257.84375 149.527344 254.496094 148.632812 C 255.613281 147.292969 257.175781 145.949219 258.738281 144.832031 C 260.523438 143.492188 262.535156 142.371094 264.769531 141.253906 C 273.03125 136.785156 282.1875 133.429688 291.121094 130.078125 C 295.585938 128.511719 300.277344 126.722656 304.742188 125.160156 C 309.210938 123.59375 313.898438 122.027344 318.367188 120.238281 C 327.523438 116.664062 336.230469 112.640625 344.496094 107.050781 C 348.515625 104.367188 352.3125 101.238281 355.660156 97.660156 C 359.011719 94.082031 361.914062 89.835938 363.476562 85.140625 C 365.265625 80.445312 365.488281 75.304688 364.59375 70.609375 C 363.476562 65.914062 361.46875 61.21875 358.339844 57.640625 C 364.148438 65.242188 365.933594 75.972656 362.359375 84.695312 C 360.574219 89.164062 357.671875 92.964844 354.320312 96.320312 C 350.972656 99.671875 347.175781 102.578125 343.15625 105.039062 C 335.117188 110.179688 326.40625 113.980469 317.25 117.332031 C 312.785156 118.898438 308.09375 120.464844 303.628906 121.804688 C 298.9375 123.144531 294.46875 124.710938 289.78125 126.277344 C 280.625 129.40625 271.46875 132.757812 262.757812 137.230469 C 260.523438 138.347656 258.292969 139.691406 256.28125 141.03125 C 254.273438 142.371094 252.039062 143.9375 250.253906 146.398438 C 250.027344 146.621094 249.804688 146.84375 249.582031 147.292969 L 249.359375 147.292969 C 244.445312 145.726562 239.53125 143.9375 235.289062 141.253906 C 233.28125 139.914062 231.269531 138.347656 230.375 136.785156 C 229.929688 135.890625 229.929688 135.21875 229.929688 134.324219 C 230.152344 133.429688 230.601562 132.535156 231.269531 131.640625 C 232.609375 129.851562 234.621094 128.289062 236.628906 126.945312 C 238.640625 125.605469 240.871094 124.265625 243.105469 122.921875 C 247.574219 120.464844 252.484375 118.453125 257.175781 116.441406 C 262.089844 114.425781 267 112.640625 271.914062 110.625 C 276.828125 108.839844 281.742188 107.050781 286.878906 105.484375 C 291.789062 103.921875 296.925781 102.132812 301.839844 100.121094 C 311.667969 96.320312 321.492188 91.847656 330.425781 85.8125 C 334.890625 82.90625 339.136719 79.328125 342.707031 75.527344 C 346.28125 71.503906 349.410156 67.03125 351.195312 61.890625 C 352.980469 56.75 353.429688 51.160156 352.3125 46.015625 C 351.195312 40.875 348.738281 35.957031 345.386719 31.710938 C 348.515625 35.957031 350.75 40.875 351.417969 46.015625 C 352.3125 51.160156 351.640625 56.523438 349.855469 61.21875 C 347.84375 66.136719 344.71875 70.386719 341.144531 73.960938 C 337.574219 77.539062 333.328125 80.894531 328.863281 83.574219 C 320.152344 89.164062 310.328125 93.414062 300.5 96.988281 C 295.585938 98.777344 290.675781 100.34375 285.539062 101.90625 C 280.402344 103.472656 275.488281 105.039062 270.351562 106.828125 C 260.300781 110.402344 250.253906 113.980469 240.871094 118.898438 C 238.417969 120.238281 236.183594 121.582031 233.726562 122.921875 C 231.492188 124.488281 229.261719 126.277344 227.25 128.734375 C 226.355469 129.851562 225.464844 131.417969 225.015625 133.207031 C 224.570312 134.996094 225.015625 137.007812 225.6875 138.570312 C 227.25 141.703125 229.707031 143.492188 232.164062 145.054688 C 237.078125 147.960938 241.988281 149.972656 247.125 151.539062 C 247.125 152.878906 247.347656 154.222656 248.019531 155.339844 C 249.582031 158.246094 251.816406 159.8125 254.050781 161.375 C 258.515625 164.058594 263.207031 165.847656 267.894531 167.410156 C 272.585938 168.976562 277.273438 170.09375 281.964844 171.4375 C 291.34375 173.671875 300.945312 175.683594 310.550781 177.25 C 329.53125 180.601562 348.738281 183.0625 367.945312 185.519531 C 377.546875 186.863281 386.925781 188.203125 396.304688 189.992188 C 400.996094 190.886719 405.6875 192.003906 410.152344 193.34375 C 413.726562 194.238281 417.300781 195.355469 420.648438 196.921875 C 419.53125 198.039062 418.191406 198.933594 416.851562 199.828125 C 414.84375 201.167969 412.386719 202.511719 410.152344 203.628906 C 400.773438 208.101562 390.722656 211.453125 380.675781 214.359375 C 360.574219 220.394531 339.804688 224.867188 319.257812 228.890625 C 329.757812 227.550781 340.027344 225.761719 350.523438 223.75 C 360.796875 221.738281 371.292969 219.503906 381.34375 216.820312 C 391.617188 214.136719 401.667969 211.007812 411.492188 206.535156 C 413.949219 205.417969 416.40625 204.078125 418.640625 202.734375 C 420.425781 201.617188 422.210938 200.277344 423.777344 198.710938 C 425.5625 199.605469 427.125 200.945312 428.242188 202.289062 C 429.359375 203.851562 429.136719 205.195312 428.019531 206.984375 C 426.902344 208.546875 425.117188 210.113281 423.105469 211.230469 C 421.09375 212.570312 419.085938 213.6875 417.074219 214.582031 C 408.589844 218.609375 399.433594 221.738281 390.054688 224.421875 C 371.742188 230.007812 352.757812 234.257812 333.777344 237.835938 C 343.378906 236.492188 352.980469 234.929688 362.359375 233.140625 C 371.742188 231.351562 381.34375 229.339844 390.722656 226.878906 C 400.101562 224.421875 409.484375 221.515625 418.414062 217.488281 C 420.648438 216.371094 422.882812 215.253906 424.890625 213.914062 C 426.902344 212.570312 429.136719 211.007812 430.921875 208.769531 C 431.816406 207.652344 432.484375 206.3125 432.707031 204.523438 C 433.824219 203.183594 433.15625 201.617188 432.261719 200.277344 Z M 424 194.015625 C 420.203125 192.226562 416.183594 190.886719 412.386719 189.542969 C 407.695312 188.203125 403.007812 187.085938 398.09375 185.96875 C 388.488281 183.957031 379.109375 182.390625 369.507812 181.050781 C 350.300781 178.589844 331.320312 175.90625 312.335938 172.554688 C 302.957031 170.988281 293.355469 169.199219 284.199219 166.964844 C 279.507812 165.847656 275.042969 164.730469 270.351562 163.164062 C 265.886719 161.597656 261.417969 160.035156 257.621094 157.796875 C 255.835938 156.679688 254.050781 155.339844 253.378906 153.773438 L 253.378906 153.550781 C 256.730469 154.445312 260.300781 155.5625 263.652344 156.234375 C 273.925781 158.691406 284.421875 160.703125 294.917969 162.492188 C 315.6875 166.070312 336.679688 168.976562 357.671875 171.4375 C 368.167969 172.777344 378.441406 174.34375 388.714844 176.355469 C 393.851562 177.472656 398.988281 178.589844 403.898438 179.929688 C 408.8125 181.273438 413.949219 182.835938 418.191406 185.296875 C 420.425781 186.414062 422.4375 187.980469 423.550781 189.542969 C 424.445312 191.332031 424.667969 192.675781 424 194.015625 Z M 424 194.015625"/></g></svg>